<svg width="24" height="24" viewBox="0 0 24 24" fill="none" xmlns="http://www.w3.org/2000/svg">
<path d="M8.47059 9.28571H6.11765C4.49328 9.28571 3.17647 10.7248 3.17647 12.5C3.17647 14.2752 4.49328 15.7143 6.11765 15.7143H8.47059C9.2532 15.7143 9.96442 15.3802 10.4914 14.8355L11.2294 15.8407C10.4993 16.5612 9.53183 17 8.47059 17H6.11765C3.84353 17 2 14.9853 2 12.5C2 10.0147 3.84353 8 6.11765 8H8.47059C10.7447 8 12.5882 10.0147 12.5882 12.5H11.4118C11.4118 10.7248 10.095 9.28571 8.47059 9.28571Z" fill="#38414D"/>
<path d="M17.8824 9.28571H15.5294C14.7285 9.28571 14.0023 9.63558 13.4719 10.2031L12.6477 9.28571C13.3903 8.49038 14.4075 8 15.5294 8H17.8824C20.1565 8 22 10.0147 22 12.5C22 14.9853 20.1565 17 17.8824 17H15.5294C13.2553 17 11.4118 14.9853 11.4118 12.5H12.5882C12.5882 14.2752 13.905 15.7143 15.5294 15.7143H17.8824C19.5067 15.7143 20.8235 14.2752 20.8235 12.5C20.8235 10.7248 19.5067 9.28571 17.8824 9.28571Z" fill="#38414D"/>
<path d="M11.4118 12.5C11.4118 10.7248 10.095 9.28571 8.47059 9.28571H6.11765C4.49328 9.28571 3.17647 10.7248 3.17647 12.5C3.17647 14.2752 4.49328 15.7143 6.11765 15.7143H8.47059C9.2532 15.7143 9.96442 15.3802 10.4914 14.8355L11.2294 15.8407C10.4993 16.5612 9.53183 17 8.47059 17H6.11765C3.84353 17 2 14.9853 2 12.5C2 10.0147 3.84353 8 6.11765 8H8.47059C10.7447 8 12.5882 10.0147 12.5882 12.5M11.4118 12.5H12.5882M11.4118 12.5C11.4118 14.9853 13.2553 17 15.5294 17H17.8824C20.1565 17 22 14.9853 22 12.5C22 10.0147 20.1565 8 17.8824 8H15.5294C14.4075 8 13.3903 8.49038 12.6477 9.28571L13.4719 10.2031C14.0023 9.63558 14.7285 9.28571 15.5294 9.28571H17.8824C19.5067 9.28571 20.8235 10.7248 20.8235 12.5C20.8235 14.2752 19.5067 15.7143 17.8824 15.7143H15.5294C13.905 15.7143 12.5882 14.2752 12.5882 12.5" stroke="#38414D" stroke-width="0.5" stroke-linecap="round" stroke-linejoin="round"/>
</svg>
