<svg width="24" height="24" viewBox="0 0 24 24" fill="none" xmlns="http://www.w3.org/2000/svg">
<path d="M6 15.8696L6 18L12.1111 18L12.1111 15.8696L6 15.8696Z" stroke="#38414D" stroke-width="1.5" stroke-linecap="round" stroke-linejoin="round"/>
<path d="M6 6L6 8.13038L17 8.13038L17 6L6 6Z" stroke="#38414D" stroke-width="1.5" stroke-linecap="round" stroke-linejoin="round"/>
<path d="M6 10.9698L6 13.1001L17 13.1001L17 10.9698L6 10.9698Z" stroke="#38414D" stroke-width="1.5" stroke-linecap="round" stroke-linejoin="round"/>
<path d="M3 5L3 19C3 20.1046 3.89543 21 5 21L19 21C20.1046 21 21 20.1046 21 19L21 5C21 3.89543 20.1046 3 19 3L5 3C3.89543 3 3 3.89543 3 5Z" stroke="#38414D" stroke-width="1.5" stroke-linecap="round" stroke-linejoin="round"/>
</svg>
