<svg width="23" height="16" viewBox="0 0 23 16" fill="none" xmlns="http://www.w3.org/2000/svg">
<path fill-rule="evenodd" clip-rule="evenodd" d="M11.9987 0C4.99872 0 0.998718 8 0.998718 8C0.998718 8 4.99872 16 11.9987 16C18.9987 16 22.9987 8 22.9987 8C22.9987 8 18.9987 0 11.9987 0ZM11.9987 12C14.2079 12 15.9987 10.2091 15.9987 8C15.9987 5.79086 14.2079 4 11.9987 4C9.78958 4 7.99872 5.79086 7.99872 8C7.99872 10.2091 9.78958 12 11.9987 12Z" fill="#58A1FF"/>
<path d="M14.9987 8C14.9987 9.65685 13.6556 11 11.9987 11C10.3419 11 8.99872 9.65685 8.99872 8C8.99872 6.34315 10.3419 5 11.9987 5C13.6556 5 14.9987 6.34315 14.9987 8Z" fill="#58A1FF"/>
</svg>
