<svg width="24" height="24" viewBox="0 0 24 24" fill="none" xmlns="http://www.w3.org/2000/svg">
<path d="M3.255 7.44483L11.5 11.9722L19.745 7.44483M11.5 21V11.9632M20 15.5492V8.3772C19.9997 8.06277 19.9122 7.75395 19.7465 7.48173C19.5807 7.20951 19.3424 6.98346 19.0556 6.82624L12.4444 3.24022C12.1573 3.08285 11.8316 3 11.5 3C11.1684 3 10.8427 3.08285 10.5556 3.24022L3.94444 6.82624C3.65758 6.98346 3.41931 7.20951 3.25355 7.48173C3.08778 7.75395 3.00034 8.06277 3 8.3772V15.5492C3.00034 15.8637 3.08778 16.1725 3.25355 16.4447C3.41931 16.7169 3.65758 16.943 3.94444 17.1002L10.5556 20.6862C10.8427 20.8436 11.1684 20.9264 11.5 20.9264C11.8316 20.9264 12.1573 20.8436 12.4444 20.6862L19.0556 17.1002C19.3424 16.943 19.5807 16.7169 19.7465 16.4447C19.9122 16.1725 19.9997 15.8637 20 15.5492Z" stroke="#38414D" stroke-width="1.5" stroke-linecap="round" stroke-linejoin="round"/>
</svg>
