<svg width="167" height="80" viewBox="0 0 167 80" fill="none" xmlns="http://www.w3.org/2000/svg">
<path d="M19.8336 29.7929C18.8031 29.445 17.717 29.23 16.6426 29.3988C11.627 30.187 5.8848 34.5207 5.15043 42.2972C5.15043 43.8622 5.44051 45.3592 5.96628 46.7408C2.75068 48.4774 0.5625 52.8456 0.5625 56.7372C0.5625 62.3919 5.17991 66.9911 10.857 66.9911H61.7722C67.4493 66.9911 72.0667 62.3919 72.0667 56.7372C72.0667 52.8456 69.8784 48.4774 66.6629 46.7408C67.1885 45.3592 67.4788 43.8622 67.4788 42.2972C67.4788 35.0164 62.7845 31.2302 57.9904 29.7916C56.4729 29.3362 54.8573 29.5319 53.3562 30.0389L38.1862 35.1619C37.371 35.4189 36.4964 35.4126 35.6851 35.1442L19.8336 29.7929Z" fill="#8ABDFF"/>
<path d="M45.5977 59.837C43.7541 59.837 42.6033 59.0369 41.7871 58.3047C41.3844 57.9432 41.3605 57.3344 41.734 56.9446C42.1075 56.5548 42.7367 56.5321 43.1392 56.893C44.3686 57.9953 46.8268 58.0393 47.8506 56.8414C48.2533 56.4805 48.8824 56.503 49.2559 56.893C49.6291 57.2826 49.6055 57.8916 49.2028 58.2531C48.3868 58.9853 47.2365 59.837 45.5977 59.837Z" fill="#383842"/>
<path d="M56.7684 55.2845C59.8814 55.2845 62.405 52.7365 62.405 49.5934C62.405 46.4503 59.8814 43.9023 56.7684 43.9023C53.6554 43.9023 51.1318 46.4503 51.1318 49.5934C51.1318 52.7365 53.6554 55.2845 56.7684 55.2845Z" fill="white"/>
<path d="M56.7687 53.008C58.6365 53.008 60.1506 51.4792 60.1506 49.5933C60.1506 47.7075 58.6365 46.1787 56.7687 46.1787C54.9009 46.1787 53.3867 47.7075 53.3867 49.5933C53.3867 51.4792 54.9009 53.008 56.7687 53.008Z" fill="#383842"/>
<path d="M55.9628 49.756C57.0301 49.756 57.8954 48.8824 57.8954 47.8047C57.8954 46.7271 57.0301 45.8535 55.9628 45.8535C54.8955 45.8535 54.0303 46.7271 54.0303 47.8047C54.0303 48.8824 54.8955 49.756 55.9628 49.756Z" fill="white"/>
<path d="M33.578 55.2845C36.691 55.2845 39.2146 52.7365 39.2146 49.5934C39.2146 46.4503 36.691 43.9023 33.578 43.9023C30.465 43.9023 27.9414 46.4503 27.9414 49.5934C27.9414 52.7365 30.465 55.2845 33.578 55.2845Z" fill="white"/>
<path d="M33.5773 53.008C35.4451 53.008 36.9592 51.4792 36.9592 49.5933C36.9592 47.7075 35.4451 46.1787 33.5773 46.1787C31.7095 46.1787 30.1953 47.7075 30.1953 49.5933C30.1953 51.4792 31.7095 53.008 33.5773 53.008Z" fill="#383842"/>
<path d="M32.7724 49.756C33.8397 49.756 34.7049 48.8824 34.7049 47.8047C34.7049 46.7271 33.8397 45.8535 32.7724 45.8535C31.7051 45.8535 30.8398 46.7271 30.8398 47.8047C30.8398 48.8824 31.7051 49.756 32.7724 49.756Z" fill="white"/>
<path d="M36.4448 13.6959C36.6025 13.646 36.7711 13.6456 36.929 13.6948L62.1343 21.54C62.9183 21.784 62.9217 22.9253 62.1393 23.1743L36.9862 31.181C36.8226 31.2331 36.6474 31.2318 36.4846 31.1774L12.0856 23.0255C11.3141 22.7677 11.3227 21.6411 12.0981 21.3959L36.4448 13.6959Z" fill="#8ABDFF"/>
<path d="M154.356 41.9379C154.434 42.0284 154.515 42.1165 154.599 42.2023L154.602 42.206C155.198 42.7969 155.907 43.2586 156.723 43.5927C157.546 43.9295 158.45 44.0953 159.43 44.0953C160.427 44.0953 161.34 43.9298 162.163 43.5927C162.98 43.2585 163.685 42.7962 164.273 42.2041C164.407 42.0683 164.535 41.9266 164.655 41.7789L162.573 40.5488C162.565 40.557 162.558 40.5651 162.551 40.5732C162.186 40.9704 161.741 41.285 161.209 41.5158L161.207 41.5165C160.692 41.7436 160.102 41.8608 159.43 41.8608C158.759 41.8608 158.164 41.7437 157.639 41.5162C157.174 41.3113 156.778 41.0401 156.445 40.7035L154.356 41.9379Z" fill="#383842"/>
<path d="M153.875 46.7059H156.092V56.2294L162.743 46.7059H164.96V60.1395H162.743V50.646L156.114 60.1382L153.875 60.1395V46.7059Z" fill="#383842"/>
<path d="M139.512 46.7051H141.729V56.2286L148.38 46.7051H150.597V60.1386H148.38V50.6452L141.751 60.1373L139.512 60.1386V46.7051Z" fill="#383842"/>
<path d="M125.586 46.7051H127.803V51.9617L134.454 51.9617V46.7051H136.671V51.9617V54.298V60.1386H134.454V54.298L127.803 54.298V60.1386H125.586V54.298L125.586 51.9617L125.586 46.7051Z" fill="#383842"/>
<path fill-rule="evenodd" clip-rule="evenodd" d="M120.519 47.2988H122.728V60.1525H120.519V58.6837C120.433 58.7597 120.345 58.8331 120.254 58.9039C119.619 59.3995 118.891 59.7529 118.076 59.9667C117.253 60.1823 116.37 60.219 115.43 60.0833C114.506 59.9499 113.677 59.6658 112.947 59.2264C112.223 58.7905 111.619 58.2453 111.138 57.5898L111.135 57.5857C110.663 56.9208 110.335 56.1615 110.148 55.312L110.147 55.3089C109.968 54.4577 109.95 53.5438 110.087 52.5708C110.221 51.6223 110.49 50.7556 110.898 49.974L110.899 49.9722C111.316 49.1837 111.844 48.5332 112.482 48.0266C113.128 47.5151 113.86 47.1529 114.677 46.9386C115.501 46.7142 116.377 46.6716 117.301 46.8051C118.242 46.9408 119.079 47.2305 119.809 47.6793C120.061 47.8312 120.298 47.9973 120.519 48.1777V47.2988ZM119.751 50.6868C120.04 51.1408 120.234 51.6508 120.332 52.2207L120.333 52.2266C120.439 52.7898 120.449 53.3978 120.356 54.0532C120.264 54.7085 120.086 55.2946 119.827 55.8146L119.825 55.8172C119.576 56.3271 119.252 56.7478 118.854 57.0842C118.456 57.4207 117.993 57.6659 117.46 57.8179L117.459 57.8184C116.942 57.969 116.37 58.0026 115.736 57.9112C115.104 57.8199 114.559 57.6251 114.095 57.3325C113.635 57.0377 113.266 56.6733 112.985 56.2397C112.704 55.8046 112.508 55.3075 112.401 54.744C112.303 54.1719 112.299 53.5591 112.391 52.9034C112.483 52.247 112.657 51.6643 112.907 51.1518C113.168 50.6309 113.496 50.1943 113.892 49.8382C114.284 49.485 114.74 49.2278 115.264 49.0674C115.789 48.91 116.366 48.8732 116.997 48.9643C117.629 49.0555 118.168 49.2534 118.62 49.5514L118.621 49.5524C119.089 49.8564 119.464 50.2345 119.751 50.6868Z" fill="#383842"/>
<path d="M96.2813 46.7051H98.4982V51.9617L105.149 51.9617V46.7051H107.366V51.9617V54.298V60.1386H105.149V54.298L98.4982 54.298V60.1386H96.2813V54.298L96.2812 51.9617L96.2813 46.7051Z" fill="#383842"/>
<path d="M87.3228 52.2186C88.43 52.2186 89.1853 52.021 89.647 51.6822C90.1645 51.3 90.3426 50.9605 90.3426 50.6716C90.3426 50.1837 90.0875 49.7674 89.4524 49.4247L89.4509 49.4239C88.8174 49.0778 87.914 48.8896 86.7121 48.8896C85.7271 48.8896 84.1705 49.0925 83.5663 49.4239L83.2628 47.3936C84.197 46.9286 85.3529 46.7051 86.7121 46.7051C87.574 46.7051 88.3674 46.7943 89.0903 46.9758C89.8173 47.1475 90.4562 47.3981 91.0016 47.7322C91.561 48.0608 92.0042 48.4797 92.3212 48.9912C92.6412 49.4986 92.801 50.0615 92.801 50.6716C92.801 51.3497 92.5609 51.9792 92.1044 52.5529C91.8364 52.8911 91.4912 53.1519 91.078 53.3414C91.4761 53.5349 91.8261 53.7914 92.1249 54.1126C92.6682 54.679 92.9569 55.3293 92.9569 56.0545C92.9569 56.7018 92.7828 57.2937 92.4333 57.8209L92.4317 57.8233C92.0886 58.3311 91.6214 58.7553 91.0395 59.0991C90.4673 59.4423 89.7971 59.6973 89.0344 59.8689C88.2703 60.0495 87.4437 60.1386 86.5561 60.1386C85.1391 60.1386 83.9396 59.9192 82.9805 59.4649L83.5663 57.3878C84.22 57.6924 85.5225 57.9411 86.5561 57.9411C87.7996 57.9411 88.7746 57.7491 89.5012 57.3878L89.5025 57.3872C90.2235 57.0326 90.5115 56.5858 90.5115 56.0545C90.5115 55.8977 90.4604 55.726 90.3334 55.5345L90.3295 55.5286L90.3259 55.5225C90.2113 55.3327 90.0322 55.1545 89.7727 54.9933L89.7668 54.9896C89.5091 54.8219 89.1801 54.6818 88.7723 54.5752L88.7664 54.5736C88.3698 54.4619 87.8903 54.403 87.3228 54.403H84.9631V52.2186H87.3228Z" fill="#383842"/>
<path fill-rule="evenodd" clip-rule="evenodd" d="M162.274 38.3748C163.089 38.0461 163.792 37.5915 164.378 37.0092C164.974 36.417 165.427 35.71 165.736 34.8927C166.055 34.0739 166.212 33.1699 166.212 32.185C166.212 31.2251 166.055 30.3268 165.738 29.4932C165.429 28.651 164.977 27.9301 164.38 27.3365C163.794 26.7367 163.091 26.2727 162.276 25.9435C161.454 25.6029 160.543 25.4355 159.548 25.4355C158.57 25.4355 157.668 25.6031 156.847 25.9435C156.031 26.2729 155.324 26.7369 154.73 27.3365C154.141 27.9302 153.689 28.6507 153.372 29.4922L153.371 29.4941C153.063 30.3274 152.91 31.2254 152.91 32.185C152.91 33.1694 153.062 34.0729 153.372 34.8913L153.373 34.8943C153.691 35.7098 154.143 36.4156 154.73 37.0074L154.733 37.011C155.328 37.5922 156.034 38.0463 156.848 38.3748C157.669 38.7061 158.57 38.8691 159.548 38.8691C160.543 38.8691 161.453 38.7063 162.274 38.3748ZM163.482 30.3716C163.297 29.8205 163.021 29.3425 162.656 28.9337C162.292 28.5264 161.847 28.2052 161.318 27.9707L161.317 27.9699C160.804 27.7391 160.217 27.62 159.548 27.62C158.88 27.62 158.288 27.739 157.766 27.9703C157.246 28.2043 156.811 28.5246 156.456 28.931C156.097 29.3408 155.821 29.8206 155.627 30.3744C155.442 30.9184 155.347 31.521 155.347 32.185C155.347 32.8484 155.442 33.4553 155.627 34.0086C155.82 34.552 156.095 35.0169 156.451 35.4079C156.806 35.7976 157.241 36.1063 157.762 36.3327C158.285 36.5564 158.879 36.6716 159.548 36.6716C160.218 36.6716 160.807 36.5563 161.321 36.333L161.322 36.3323C161.853 36.1053 162.297 35.7959 162.66 35.4053C163.024 35.0148 163.298 34.5513 163.482 34.01L163.483 34.0073C163.676 33.4545 163.775 32.848 163.775 32.185C163.775 31.5219 163.676 30.9204 163.484 30.3772L163.482 30.3716Z" fill="#383842"/>
<path d="M140.066 25.4355H142.335V31.608L148.86 25.5279L152.26 25.5296L145.541 31.7786L152.26 38.8614L148.856 38.8611L143.837 33.3637L142.335 34.7605V38.8691H140.066V25.4355Z" fill="#383842"/>
<path fill-rule="evenodd" clip-rule="evenodd" d="M134.515 26.0048H136.724V38.8586H134.515V37.3898C134.429 37.4658 134.341 37.5392 134.25 37.61C133.615 38.1055 132.887 38.459 132.072 38.6728C131.249 38.8884 130.366 38.9251 129.426 38.7894C128.502 38.656 127.673 38.3718 126.943 37.9325C126.22 37.4966 125.615 36.9514 125.134 36.2959L125.131 36.2918C124.66 35.6268 124.331 34.8675 124.144 34.0181L124.143 34.0149C123.964 33.1637 123.946 32.2499 124.084 31.2769C124.217 30.3284 124.487 29.4616 124.894 28.68L124.895 28.6783C125.312 27.8898 125.84 27.2392 126.478 26.7327C127.124 26.2211 127.857 25.8589 128.673 25.6446C129.497 25.4202 130.373 25.3776 131.297 25.5111C132.238 25.6469 133.075 25.9365 133.805 26.3853C134.057 26.5372 134.294 26.7034 134.515 26.8838V26.0048ZM133.748 29.3929C134.036 29.8468 134.23 30.3569 134.328 30.9268L134.329 30.9326C134.435 31.4958 134.445 32.1038 134.352 32.7593C134.26 33.4146 134.082 34.0006 133.823 34.5207L133.821 34.5232C133.572 35.0331 133.248 35.4539 132.85 35.7902C132.452 36.1268 131.989 36.372 131.457 36.524L131.455 36.5245C130.938 36.6751 130.366 36.7087 129.733 36.6173C129.1 36.5259 128.555 36.3311 128.092 36.0386C127.631 35.7438 127.263 35.3793 126.982 34.9457C126.7 34.5107 126.504 34.0135 126.397 33.4501C126.299 32.8779 126.295 32.2651 126.387 31.6094C126.479 30.9531 126.653 30.3704 126.903 29.8578C127.164 29.337 127.492 28.9004 127.888 28.5442C128.28 28.191 128.736 27.9338 129.26 27.7734C129.786 27.616 130.362 27.5793 130.993 27.6704C131.625 27.7616 132.164 27.9595 132.616 28.2575L132.618 28.2585C133.085 28.5625 133.46 28.9406 133.748 29.3929Z" fill="#383842"/>
<path fill-rule="evenodd" clip-rule="evenodd" d="M122.331 38.562V25.4355H117.509C114.701 25.4355 112.425 27.7308 112.425 30.5622V35.4566C112.425 35.9121 112.319 36.1901 112.166 36.3543C112.017 36.5144 111.77 36.6235 111.361 36.6235C111.118 36.6235 110.939 36.6065 110.814 36.5787C110.7 36.5515 110.6 36.5086 110.511 36.4508L110.113 36.1926L109.583 38.3491L109.787 38.4813C110.215 38.7576 110.838 38.8691 111.599 38.8691C112.036 38.8691 112.456 38.7908 112.857 38.6334C113.259 38.4847 113.615 38.2654 113.922 37.9759C114.233 37.6824 114.475 37.3216 114.651 36.9001C114.84 36.4678 114.93 35.9845 114.93 35.4566V31.099C114.93 29.2114 116.447 27.6811 118.319 27.6811H119.826V38.562H122.331Z" fill="#383842"/>
<path fill-rule="evenodd" clip-rule="evenodd" d="M104.62 38.3808C105.417 38.0562 106.105 37.6073 106.679 37.0324C107.262 36.4476 107.705 35.7496 108.008 34.9426C108.32 34.1341 108.474 33.2415 108.474 32.2691C108.474 31.3213 108.32 30.4343 108.009 29.6112C107.707 28.7797 107.265 28.0679 106.68 27.4818C106.107 26.8895 105.419 26.4314 104.621 26.1063C103.817 25.77 102.925 25.6048 101.952 25.6048C100.994 25.6048 100.111 25.7703 99.3076 26.1063C98.7389 26.338 98.1784 26.6797 97.7191 27.0466C97.436 25.6048 98.8511 22.1447 101.115 22.1447C102.53 22.1447 103.545 23.4721 105.361 23.0097C106.493 22.7214 107.625 21.568 107.908 21.2796L106.21 19.8379C105.927 20.2224 105.078 20.9336 103.946 20.7029C102.53 20.4146 102.182 19.5663 99.9832 20.1262C97.7191 20.7029 95.1719 23.8747 95.1719 27.9116C95.1719 31.9485 95.4549 32.8135 95.4549 32.8135C95.5032 33.5623 95.6654 34.297 95.9072 34.9411L95.9083 34.9441C96.2194 35.7493 96.6615 36.4463 97.2356 37.0306L97.2392 37.0341C97.8208 37.6079 98.5122 38.0563 99.309 38.3808C100.112 38.7078 100.995 38.8688 101.952 38.8688C102.925 38.8688 103.816 38.7081 104.62 38.3808ZM105.801 30.4785C105.621 29.9344 105.351 29.4624 104.993 29.0588C104.637 28.6566 104.202 28.3395 103.684 28.1079L103.683 28.1072C103.181 27.8793 102.606 27.7617 101.952 27.7617C101.298 27.7617 100.718 27.8792 100.207 28.1076C99.6988 28.3386 99.2729 28.6549 98.925 29.0561C98.5743 29.4607 98.3034 29.9346 98.1137 30.4813C97.9327 31.0185 97.8402 31.6134 97.8402 32.2691C97.8402 32.924 97.9325 33.5234 98.1137 34.0697C98.3028 34.6061 98.5724 35.0652 98.9207 35.4513C99.2679 35.8361 99.6939 36.1408 100.203 36.3644C100.716 36.5853 101.297 36.699 101.952 36.699C102.607 36.699 103.184 36.5851 103.686 36.3647L103.688 36.364C104.207 36.1399 104.642 35.8344 104.998 35.4487C105.353 35.0632 105.622 34.6055 105.802 34.0711L105.803 34.0684C105.992 33.5225 106.089 32.9237 106.089 32.2691C106.089 31.6143 105.992 31.0204 105.803 30.4841L105.801 30.4785Z" fill="#383842"/>
<path fill-rule="evenodd" clip-rule="evenodd" d="M90.1257 38.3748C90.9403 38.0461 91.6431 37.5915 92.2294 37.0092C92.8256 36.417 93.2783 35.71 93.588 34.8927C93.9069 34.0739 94.0636 33.1699 94.0636 32.185C94.0636 31.2251 93.9065 30.3268 93.5891 29.4932C93.2803 28.651 92.8283 27.9301 92.2313 27.3365C91.6454 26.7367 90.9425 26.2727 90.1272 25.9435C89.3054 25.6029 88.3946 25.4355 87.3997 25.4355C86.4212 25.4355 85.5193 25.6031 84.6981 25.9435C83.8824 26.2729 83.1754 26.7369 82.5811 27.3365C81.9927 27.9302 81.541 28.6507 81.2237 29.4922L81.223 29.4941C80.9144 30.3274 80.7617 31.2254 80.7617 32.185C80.7617 33.1694 80.9139 34.0729 81.2238 34.8913L81.225 34.8943C81.5429 35.7098 81.9946 36.4156 82.5811 37.0074L82.5848 37.011C83.1791 37.5922 83.8854 38.0463 84.6996 38.3748C85.5203 38.7061 86.4218 38.8691 87.3997 38.8691C88.3941 38.8691 89.3043 38.7063 90.1257 38.3748ZM91.3332 30.3716C91.1484 29.8205 90.873 29.3425 90.5075 28.9337C90.1434 28.5264 89.699 28.2052 89.17 27.9707L89.1683 27.9699C88.6556 27.7391 88.0681 27.62 87.3997 27.62C86.7318 27.62 86.1395 27.739 85.6173 27.9703C85.0979 28.2043 84.6627 28.5246 84.3073 28.931C83.9489 29.3408 83.6722 29.8206 83.4783 30.3744C83.2933 30.9184 83.1988 31.521 83.1988 32.185C83.1988 32.8484 83.2931 33.4553 83.4783 34.0086C83.6716 34.552 83.947 35.0169 84.3029 35.4079C84.6576 35.7976 85.0928 36.1063 85.6135 36.3327C86.1367 36.5564 86.7303 36.6716 87.3997 36.6716C88.0696 36.6716 88.6585 36.5563 89.1722 36.333L89.1739 36.3323C89.7041 36.1053 90.1485 35.7959 90.512 35.4053C90.8753 35.0148 91.1495 34.5513 91.3337 34.01L91.3346 34.0073C91.528 33.4545 91.6265 32.848 91.6265 32.185C91.6265 31.5219 91.528 30.9204 91.3351 30.3772L91.3332 30.3716Z" fill="#383842"/>
</svg>
