<svg width="241" height="100" viewBox="0 0 241 100" fill="none" xmlns="http://www.w3.org/2000/svg">
<path fill-rule="evenodd" clip-rule="evenodd" d="M27.1387 59.9403L24.6078 61.2944C23.2831 62.0031 21.9887 63.3647 21.0119 65.1955C20.0418 67.014 19.5071 69.0731 19.5071 70.9223C19.5071 76.1533 23.8359 80.4878 29.2452 80.4878H93.4891C98.8984 80.4878 103.227 76.1533 103.227 70.9223C103.227 69.0732 102.693 67.014 101.722 65.1955C100.746 63.3647 99.4512 62.0031 98.1265 61.2944L95.5959 59.9403L96.625 57.2607C97.1492 55.8958 97.4383 54.4192 97.4383 52.8723C97.4383 48.7033 95.9754 46.0671 94.0178 44.2929C91.9572 42.4255 89.1034 41.3032 86.1205 40.7549C86.0918 40.7496 86.0054 40.7425 85.8626 40.7903L64.729 47.8607L64.6977 47.8705C63.0232 48.3934 61.2269 48.3807 59.5603 47.8344L59.5511 47.8314L38.2046 40.6923C38.1328 40.6683 38.0936 40.6633 38.0839 40.6624C32.7378 40.9054 26.1704 44.6641 25.297 53.0247C25.3153 54.5164 25.6022 55.9408 26.1092 57.2604L27.1387 59.9403ZM22.0448 52.8723C23.0408 42.4245 31.3363 37.709 37.9473 37.4132C38.3849 37.3936 38.8201 37.4692 39.2356 37.6081L60.5728 44.7441C61.5965 45.0796 62.7001 45.0875 63.7287 44.7662L84.8313 37.7062C85.4364 37.5038 86.0807 37.4411 86.7082 37.5564C93.38 38.7829 100.69 42.7622 100.69 52.8723C100.69 54.8286 100.323 56.6999 99.6601 58.4268C103.717 60.5976 106.478 66.0578 106.478 70.9223C106.478 77.9907 100.652 83.7398 93.4891 83.7398H29.2452C22.082 83.7398 16.2559 77.9907 16.2559 70.9223C16.2559 66.0578 19.0169 60.5976 23.0742 58.4268C22.4108 56.6999 22.0448 54.8286 22.0448 52.8723Z" fill="white"/>
<path fill-rule="evenodd" clip-rule="evenodd" d="M92.2536 61.5855C92.2536 65.5144 89.0694 68.6993 85.1414 68.6993C81.2135 68.6993 78.0293 65.5144 78.0293 61.5855C78.0293 57.6566 81.2135 54.4717 85.1414 54.4717C89.0694 54.4717 92.2536 57.6566 92.2536 61.5855ZM89.4087 61.5855C89.4087 63.9428 87.4982 65.8538 85.1414 65.8538C82.7847 65.8538 80.8742 63.9428 80.8742 61.5855C80.8742 59.2282 82.7847 57.3172 85.1414 57.3172C87.4982 57.3172 89.4087 59.2282 89.4087 61.5855Z" fill="white"/>
<path d="M84.125 61.7882C85.4717 61.7882 86.5634 60.6962 86.5634 59.3492C86.5634 58.0021 85.4717 56.9102 84.125 56.9102C82.7783 56.9102 81.6865 58.0021 81.6865 59.3492C81.6865 60.6962 82.7783 61.7882 84.125 61.7882Z" fill="white"/>
<path fill-rule="evenodd" clip-rule="evenodd" d="M62.9919 61.5855C62.9919 65.5144 59.8076 68.6993 55.8797 68.6993C51.9518 68.6993 48.7676 65.5144 48.7676 61.5855C48.7676 57.6566 51.9518 54.4717 55.8797 54.4717C59.8076 54.4717 62.9919 57.6566 62.9919 61.5855ZM60.147 61.5855C60.147 63.9428 58.2365 65.8538 55.8797 65.8538C53.523 65.8538 51.6124 63.9428 51.6124 61.5855C51.6124 59.2282 53.523 57.3172 55.8797 57.3172C58.2365 57.3172 60.147 59.2282 60.147 61.5855Z" fill="white"/>
<path d="M54.8642 61.7882C56.2109 61.7882 57.3027 60.6962 57.3027 59.3492C57.3027 58.0021 56.2109 56.9102 54.8642 56.9102C53.5175 56.9102 52.4258 58.0021 52.4258 59.3492C52.4258 60.6962 53.5175 61.7882 54.8642 61.7882Z" fill="white"/>
<path fill-rule="evenodd" clip-rule="evenodd" d="M61.604 17.1198C61.8009 17.0583 62.0113 17.0578 62.2085 17.1184L93.6725 26.7835C94.6512 27.0842 94.6555 28.4901 93.6788 28.797L62.2799 38.661C62.0757 38.7252 61.857 38.7236 61.6537 38.6566L31.1962 28.6136C30.233 28.296 30.2438 26.9081 31.2118 26.606L61.604 17.1198ZM30.2433 23.5016L60.6355 14.0154C61.4583 13.7586 62.339 13.7566 63.163 14.0097L94.627 23.6748C98.6591 24.9134 98.6747 30.6361 94.653 31.8996L63.2541 41.7636C62.4007 42.0317 61.4852 42.0252 60.6358 41.7451L30.1782 31.7021C26.2152 30.3954 26.254 24.7467 30.2433 23.5016Z" fill="white"/>
<path d="M66.0734 73.0689L66.0735 73.069C67.1279 74.0061 68.6369 75.0475 71.0477 75.0475C73.2093 75.0475 74.7195 73.9318 75.7626 73.0045L75.7626 73.0044C76.3764 72.4587 76.4136 71.5335 75.8432 70.9437C75.2782 70.3593 74.332 70.3266 73.7244 70.8661L73.712 70.8771L73.7011 70.8897C73.1192 71.5642 72.1031 71.9123 71.015 71.9135C69.9296 71.9146 68.8308 71.5694 68.1117 70.9306C67.5043 70.391 66.5578 70.4241 65.9929 71.0082C65.4222 71.5982 65.4597 72.5232 66.0734 73.0689Z" fill="white" stroke="white" stroke-width="0.5"/>
<path d="M209.907 52.4209C210.006 52.534 210.108 52.6442 210.214 52.7514L210.219 52.756C210.971 53.4946 211.864 54.0718 212.894 54.4895C213.932 54.9105 215.073 55.1177 216.31 55.1177C217.568 55.1177 218.72 54.9108 219.759 54.4895C220.789 54.0716 221.678 53.4938 222.42 52.7537C222.59 52.5839 222.751 52.4067 222.903 52.2222L220.275 50.6846C220.266 50.6948 220.257 50.7049 220.247 50.715C219.788 51.2115 219.225 51.6048 218.555 51.8933L218.552 51.8942C217.903 52.178 217.158 52.3245 216.31 52.3245C215.463 52.3245 214.712 52.1782 214.05 51.8938C213.464 51.6376 212.963 51.2986 212.544 50.8779L209.907 52.4209Z" fill="white"/>
<path d="M209.301 58.3809H212.098V70.2853L220.49 58.3809H223.288V75.1729H220.49V63.3061L212.126 75.1712L209.301 75.1729V58.3809Z" fill="white"/>
<path d="M191.176 58.3809H193.973V70.2852L202.365 58.3809H205.163V75.1728H202.365V63.306L194.001 75.1712L191.176 75.1728V58.3809Z" fill="white"/>
<path d="M173.603 58.3809H176.4V64.9516L184.792 64.9516V58.3809H187.589V64.9516V67.872V75.1728H184.792V67.872L176.4 67.872V75.1728H173.603V67.872L173.603 64.9516L173.603 58.3809Z" fill="white"/>
<path fill-rule="evenodd" clip-rule="evenodd" d="M167.211 59.1237H169.998V75.1909H167.211V73.3549C167.103 73.4499 166.991 73.5416 166.877 73.6301C166.075 74.2496 165.157 74.6914 164.128 74.9587C163.09 75.2281 161.976 75.274 160.79 75.1044C159.624 74.9376 158.578 74.5825 157.657 74.0333C156.744 73.4884 155.981 72.8069 155.375 71.9875L155.371 71.9824C154.775 71.1512 154.361 70.2021 154.125 69.1403L154.124 69.1363C153.898 68.0723 153.876 66.93 154.049 65.7138C154.217 64.5282 154.557 63.4447 155.072 62.4677L155.073 62.4655C155.599 61.4799 156.264 60.6667 157.07 60.0335C157.885 59.3941 158.809 58.9413 159.84 58.6734C160.879 58.393 161.984 58.3397 163.151 58.5066C164.337 58.6763 165.394 59.0383 166.314 59.5993C166.633 59.7892 166.932 59.9969 167.211 60.2224V59.1237ZM166.242 63.3588C166.606 63.9262 166.851 64.5638 166.974 65.2762L166.976 65.2834C167.11 65.9875 167.122 66.7475 167.006 67.5667C166.889 68.3859 166.665 69.1184 166.337 69.7685L166.336 69.7717C166.021 70.4091 165.612 70.935 165.11 71.3555C164.608 71.7761 164.024 72.0827 163.352 72.2726L163.35 72.2733C162.698 72.4615 161.975 72.5035 161.176 72.3892C160.378 72.2751 159.69 72.0316 159.106 71.6659C158.525 71.2974 158.06 70.8418 157.705 70.2998C157.35 69.756 157.103 69.1346 156.968 68.4303C156.844 67.7151 156.838 66.9491 156.955 66.1294C157.072 65.309 157.29 64.5807 157.606 63.94C157.935 63.2889 158.349 62.7432 158.849 62.298C159.344 61.8565 159.919 61.5349 160.58 61.3345C161.243 61.1377 161.971 61.0917 162.767 61.2057C163.564 61.3196 164.244 61.567 164.815 61.9396L164.817 61.9408C165.406 62.3208 165.88 62.7934 166.242 63.3588Z" fill="white"/>
<path d="M136.627 58.3809H139.424V64.9516L147.816 64.9516V58.3809H150.614V64.9516V67.872V75.1728H147.816V67.872L139.424 67.872V75.1728H136.627V67.872L136.627 64.9516L136.627 58.3809Z" fill="white"/>
<path d="M125.323 65.2727C126.72 65.2727 127.673 65.0257 128.255 64.6023C128.908 64.1245 129.133 63.7001 129.133 63.3391C129.133 62.7291 128.811 62.2087 128.01 61.7804L128.008 61.7794C127.209 61.3468 126.069 61.1115 124.552 61.1115C123.309 61.1115 121.345 61.3651 120.583 61.7794L120.2 59.2416C121.379 58.6603 122.837 58.3809 124.552 58.3809C125.64 58.3809 126.641 58.4924 127.553 58.7192C128.47 58.9338 129.276 59.2471 129.965 59.6648C130.67 60.0755 131.23 60.5992 131.63 61.2385C132.033 61.8728 132.235 62.5763 132.235 63.3391C132.235 64.1866 131.932 64.9735 131.356 65.6907C131.018 66.1133 130.582 66.4393 130.061 66.6762C130.563 66.9181 131.005 67.2387 131.382 67.6403C132.068 68.3483 132.432 69.1611 132.432 70.0676C132.432 70.8768 132.212 71.6167 131.771 72.2756L131.769 72.2786C131.336 72.9134 130.747 73.4436 130.013 73.8733C129.29 74.3023 128.445 74.6211 127.482 74.8356C126.518 75.0614 125.475 75.1728 124.355 75.1728C122.567 75.1728 121.054 74.8985 119.844 74.3306L120.583 71.7343C121.408 72.115 123.051 72.4259 124.355 72.4259C125.924 72.4259 127.155 72.1859 128.072 71.7343L128.073 71.7335C128.983 71.2903 129.346 70.7318 129.346 70.0676C129.346 69.8716 129.282 69.657 129.122 69.4176L129.117 69.4103L129.112 69.4027C128.967 69.1654 128.742 68.9426 128.414 68.7412L128.407 68.7365C128.081 68.5269 127.666 68.3517 127.152 68.2185L127.144 68.2165C126.644 68.0769 126.039 68.0033 125.323 68.0033H122.345V65.2727H125.323Z" fill="white"/>
<path fill-rule="evenodd" clip-rule="evenodd" d="M219.896 47.9671C220.924 47.5562 221.811 46.9879 222.551 46.26C223.303 45.5198 223.874 44.6361 224.265 43.6144C224.667 42.5909 224.865 41.4609 224.865 40.2298C224.865 39.0299 224.667 37.907 224.266 36.865C223.877 35.8123 223.307 34.9112 222.553 34.1691C221.814 33.4194 220.927 32.8394 219.898 32.4279C218.861 32.0021 217.712 31.793 216.457 31.793C215.222 31.793 214.084 32.0025 213.048 32.4279C212.019 32.8396 211.127 33.4197 210.377 34.1692C209.634 34.9112 209.064 35.8119 208.664 36.8638L208.663 36.8662C208.274 37.9078 208.081 39.0303 208.081 40.2298C208.081 41.4603 208.273 42.5896 208.664 43.6126L208.666 43.6164C209.067 44.6358 209.637 45.5181 210.377 46.2578L210.381 46.2623C211.131 46.9887 212.023 47.5564 213.05 47.9671C214.085 48.3811 215.223 48.5849 216.457 48.5849C217.711 48.5849 218.86 48.3815 219.896 47.9671ZM221.42 37.963C221.187 37.2742 220.839 36.6767 220.378 36.1656C219.919 35.6565 219.358 35.255 218.69 34.9619L218.688 34.9609C218.041 34.6725 217.3 34.5236 216.457 34.5236C215.614 34.5236 214.867 34.6723 214.208 34.9614C213.552 35.2539 213.003 35.6543 212.555 36.1622C212.103 36.6745 211.753 37.2743 211.509 37.9665C211.275 38.6466 211.156 39.3997 211.156 40.2298C211.156 41.059 211.275 41.8177 211.509 42.5093C211.753 43.1885 212.1 43.7697 212.549 44.2585C212.997 44.7456 213.546 45.1314 214.203 45.4144C214.863 45.6941 215.612 45.838 216.457 45.838C217.302 45.838 218.045 45.6939 218.693 45.4148L218.695 45.4139C219.364 45.1302 219.925 44.7434 220.384 44.2551C220.842 43.7671 221.188 43.1876 221.421 42.5111L221.422 42.5077C221.666 41.8166 221.79 41.0585 221.79 40.2298C221.79 39.4009 221.666 38.649 221.422 37.97L221.42 37.963Z" fill="white"/>
<path d="M191.875 31.793H194.737V39.5085L202.97 31.9085L207.26 31.9106L198.783 39.7217L207.26 48.5753L202.965 48.5749L196.632 41.7032L194.737 43.4492V48.5849H191.875V31.793Z" fill="white"/>
<path fill-rule="evenodd" clip-rule="evenodd" d="M184.871 32.5046H187.658V48.5718H184.871V46.7357C184.763 46.8308 184.651 46.9225 184.537 47.011C183.735 47.6304 182.817 48.0723 181.788 48.3395C180.75 48.609 179.636 48.6549 178.45 48.4853C177.284 48.3185 176.238 47.9633 175.317 47.4141C174.404 46.8693 173.641 46.1877 173.035 45.3684L173.031 45.3632C172.436 44.5321 172.021 43.5829 171.785 42.5211L171.784 42.5172C171.559 41.4532 171.536 40.3109 171.709 39.0947C171.877 37.909 172.217 36.8256 172.732 35.8486L172.733 35.8464C173.259 34.8608 173.925 34.0475 174.731 33.4144C175.545 32.775 176.469 32.3222 177.5 32.0543C178.539 31.7738 179.644 31.7206 180.811 31.8875C181.998 32.0571 183.054 32.4192 183.975 32.9802C184.293 33.1701 184.592 33.3778 184.871 33.6033V32.5046ZM183.903 36.7396C184.267 37.3071 184.511 37.9446 184.635 38.657L184.636 38.6643C184.77 39.3683 184.782 40.1283 184.666 40.9476C184.549 41.7668 184.325 42.4993 183.997 43.1494L183.996 43.1526C183.681 43.7899 183.272 44.3159 182.771 44.7363C182.269 45.157 181.684 45.4635 181.012 45.6535L181.01 45.6541C180.358 45.8424 179.635 45.8844 178.837 45.7701C178.038 45.656 177.35 45.4125 176.766 45.0468C176.185 44.6782 175.72 44.2227 175.365 43.6807C175.01 43.1369 174.763 42.5154 174.628 41.8112C174.504 41.096 174.499 40.3299 174.615 39.5103C174.732 38.6899 174.95 37.9615 175.267 37.3208C175.595 36.6698 176.01 36.124 176.509 35.6788C177.004 35.2373 177.58 34.9158 178.24 34.7153C178.903 34.5186 179.631 34.4726 180.427 34.5865C181.224 34.7005 181.904 34.9479 182.475 35.3204L182.477 35.3216C183.066 35.7016 183.54 36.1742 183.903 36.7396Z" fill="white"/>
<path fill-rule="evenodd" clip-rule="evenodd" d="M169.496 48.2011V31.793H163.412C159.869 31.793 156.997 34.6621 156.997 38.2013V44.3193C156.997 44.8886 156.863 45.2361 156.67 45.4414C156.482 45.6416 156.171 45.7779 155.654 45.7779C155.348 45.7779 155.122 45.7566 154.964 45.7219C154.821 45.688 154.695 45.6342 154.582 45.5621L154.08 45.2392L153.411 47.9349L153.669 48.1002C154.208 48.4455 154.995 48.5849 155.955 48.5849C156.506 48.5849 157.037 48.487 157.543 48.2903C158.05 48.1044 158.499 47.8303 158.886 47.4684C159.279 47.1015 159.584 46.6505 159.806 46.1236C160.044 45.5833 160.158 44.9791 160.158 44.3193V38.8722C160.158 36.5127 162.072 34.6 164.434 34.6H166.335V48.2011H169.496Z" fill="white"/>
<path fill-rule="evenodd" clip-rule="evenodd" d="M147.15 47.9755C148.156 47.5697 149.023 47.0086 149.748 46.29C150.484 45.559 151.043 44.6865 151.425 43.6778C151.819 42.6671 152.013 41.5514 152.013 40.3358C152.013 39.1511 151.819 38.0424 151.427 37.0136C151.045 35.9741 150.487 35.0844 149.75 34.3517C149.026 33.6114 148.158 33.0388 147.151 32.6324C146.137 32.212 145.012 32.0055 143.783 32.0055C142.575 32.0055 141.461 32.2124 140.447 32.6324C139.729 32.922 139.022 33.3491 138.443 33.8077C138.085 32.0055 139.871 27.6803 142.728 27.6803C144.513 27.6803 145.794 29.3397 148.084 28.7616C149.513 28.4012 150.941 26.9595 151.298 26.599L149.156 24.7969C148.799 25.2775 147.727 26.1665 146.299 25.8782C144.513 25.5177 144.073 24.4574 141.299 25.1573C138.443 25.8782 135.229 29.8429 135.229 34.889C135.229 39.9351 135.586 41.0164 135.586 41.0164C135.647 41.9524 135.851 42.8708 136.156 43.6759L136.158 43.6797C136.55 44.6862 137.108 45.5573 137.832 46.2877L137.837 46.2922C138.571 47.0094 139.443 47.5699 140.449 47.9755C141.462 48.3842 142.575 48.5855 143.783 48.5855C145.011 48.5855 146.135 48.3846 147.15 47.9755ZM148.641 38.0977C148.413 37.4175 148.072 36.8276 147.621 36.323C147.171 35.8203 146.623 35.4239 145.969 35.1344L145.967 35.1335C145.334 34.8487 144.609 34.7017 143.783 34.7017C142.958 34.7017 142.227 34.8485 141.582 35.134C140.941 35.4227 140.403 35.8181 139.964 36.3196C139.522 36.8254 139.18 37.4177 138.94 38.1011C138.712 38.7726 138.595 39.5163 138.595 40.3358C138.595 41.1546 138.712 41.9037 138.94 42.5866C139.179 43.2572 139.519 43.8311 139.959 44.3137C140.397 44.7946 140.934 45.1755 141.577 45.455C142.223 45.7311 142.956 45.8732 143.783 45.8732C144.61 45.8732 145.338 45.7309 145.972 45.4554L145.974 45.4545C146.629 45.1744 147.178 44.7925 147.627 44.3103C148.075 43.8285 148.414 43.2564 148.641 42.5883L148.642 42.585C148.881 41.9026 149.003 41.1541 149.003 40.3358C149.003 39.5174 148.881 38.775 148.643 38.1046L148.641 38.0977Z" fill="white"/>
<path fill-rule="evenodd" clip-rule="evenodd" d="M128.861 47.9671C129.889 47.5562 130.776 46.9879 131.516 46.26C132.268 45.5198 132.839 44.6361 133.23 43.6144C133.632 42.5909 133.83 41.4609 133.83 40.2298C133.83 39.0299 133.632 37.907 133.231 36.865C132.842 35.8123 132.271 34.9112 131.518 34.1691C130.779 33.4194 129.892 32.8394 128.863 32.4279C127.826 32.0021 126.677 31.793 125.422 31.793C124.187 31.793 123.049 32.0025 122.013 32.4279C120.984 32.8396 120.091 33.4197 119.342 34.1692C118.599 34.9112 118.029 35.8119 117.629 36.8638L117.628 36.8662C117.239 37.9078 117.046 39.0303 117.046 40.2298C117.046 41.4603 117.238 42.5896 117.629 43.6126L117.63 43.6164C118.032 44.6358 118.601 45.5181 119.342 46.2578L119.346 46.2623C120.096 46.9887 120.987 47.5564 122.015 47.9671C123.05 48.3811 124.188 48.5849 125.422 48.5849C126.676 48.5849 127.825 48.3815 128.861 47.9671ZM130.385 37.963C130.152 37.2742 129.804 36.6767 129.343 36.1656C128.883 35.6565 128.323 35.255 127.655 34.9619L127.653 34.9609C127.006 34.6725 126.265 34.5236 125.422 34.5236C124.579 34.5236 123.831 34.6723 123.173 34.9614C122.517 35.2539 121.968 35.6543 121.52 36.1622C121.067 36.6745 120.718 37.2743 120.474 37.9665C120.24 38.6466 120.121 39.3997 120.121 40.2298C120.121 41.059 120.24 41.8177 120.474 42.5093C120.717 43.1885 121.065 43.7697 121.514 44.2585C121.962 44.7456 122.511 45.1314 123.168 45.4144C123.828 45.6941 124.577 45.838 125.422 45.838C126.267 45.838 127.01 45.6939 127.658 45.4148L127.66 45.4139C128.329 45.1302 128.89 44.7434 129.349 44.2551C129.807 43.7671 130.153 43.1876 130.385 42.5111L130.387 42.5077C130.631 41.8166 130.755 41.0585 130.755 40.2298C130.755 39.4009 130.631 38.649 130.387 37.97L130.385 37.963Z" fill="white"/>
</svg>
