<svg width="106" height="96" viewBox="0 0 106 96" fill="none" xmlns="http://www.w3.org/2000/svg">
<path d="M98.0518 38.5269C98.825 36.5162 99.2518 34.3375 99.2518 32.0598C99.2518 22.5095 91.8101 14.6769 82.3308 13.8753C80.0016 6.41729 72.956 0.996094 64.6247 0.996094C60.4105 0.996094 56.5267 2.38561 53.4141 4.72176C50.3014 2.38561 46.4179 0.996094 42.2034 0.996094C33.8722 0.996094 26.8268 6.41729 24.4973 13.8753C15.018 14.6769 7.57628 22.5095 7.57628 32.0598C7.57628 34.3375 8.00294 36.5162 8.77627 38.5269C4.04661 41.0543 0.828125 45.9917 0.828125 51.6554C0.828125 59.8851 7.61964 66.5786 15.9697 66.5786H90.8584C99.2085 66.5786 106 59.8851 106 51.6554C106 45.9917 102.781 41.0543 98.0518 38.5269V38.5269Z" fill="url(#paint0_linear_3670_18589)"/>
<path d="M71.454 12.7767C70.218 11.521 68.6199 10.5982 66.954 10.1782C65.747 9.87392 65.019 8.66311 65.3277 7.47356C65.6364 6.28422 66.8639 5.5661 68.0722 5.8708C70.5694 6.50034 72.8587 7.81811 74.692 9.68127C75.5595 10.5626 75.5377 11.97 74.6433 12.8248C73.7493 13.6791 72.3215 13.6583 71.454 12.7767Z" fill="#F3FAFF"/>
<path d="M54.7986 12.0356C54.0556 11.05 54.2643 9.65764 55.2644 8.92557C56.0858 8.32415 57.1883 7.55289 58.4316 6.92003C59.5379 6.35691 60.899 6.78451 61.4706 7.87552C62.0419 8.96632 61.6081 10.3073 60.5011 10.8707C59.5462 11.3565 58.6385 11.9938 57.9542 12.4947C56.9539 13.2267 55.5412 13.0213 54.7986 12.0356V12.0356Z" fill="#F3FAFF"/>
<g opacity="0.75">
<path opacity="0.75" d="M27.2864 37.2114C25.6806 35.9862 23.8646 35.0177 21.9013 34.3624C23.3768 33.2847 24.6768 31.8401 25.2821 29.92C25.5591 29.0407 25.0605 28.1062 24.1683 27.8332C23.2764 27.5604 22.3282 28.0515 22.051 28.9308C21.4498 30.8387 19.5124 32.0847 17.9931 32.794C17.4552 33.0451 16.9293 33.2484 16.4532 33.4118H16.4534C16.2921 33.4076 16.131 33.4016 15.9688 33.4016C13.0608 33.4016 10.3103 34.0637 7.86133 35.2407C8.06376 36.3766 8.37067 37.4767 8.77576 38.5299C10.9167 37.3857 13.3672 36.7351 15.9692 36.7351C19.4483 36.7351 22.656 37.8999 25.2131 39.8527C25.8822 40.3638 26.8357 40.2936 27.4342 39.7037C28.1512 38.9967 28.0885 37.8233 27.2864 37.2114V37.2114Z" fill="#81C9FD"/>
<path opacity="0.75" d="M51.3417 19.5006C49.3856 19.4906 48.1652 19.0588 47.4044 18.5429C46.6055 18.0008 46.2134 17.0278 46.3806 16.0863C47.2004 11.4689 49.7811 7.44915 53.415 4.72172C52.4691 4.01179 51.452 3.38956 50.3758 2.86719C46.4343 6.20157 43.7049 10.8898 42.9381 16.193C42.7878 17.2331 42.1692 18.1653 41.2463 18.691C40.4633 19.137 39.3105 19.4911 37.6218 19.5006C36.7022 19.5057 35.8976 20.1955 35.8617 21.1014C35.8239 22.0526 36.5952 22.8354 37.5519 22.8354C41.2598 22.8354 43.3461 21.5927 44.4812 20.4508C45.6162 21.5927 47.7028 22.8354 51.4104 22.8354C52.3666 22.8354 53.1377 22.0533 53.1009 21.1027C53.0656 20.1968 52.2615 19.5052 51.3417 19.5006V19.5006Z" fill="#81C9FD"/>
<path opacity="0.75" d="M90.8583 33.4021C90.1238 33.4021 89.4004 33.4473 88.6884 33.5292C86.7674 31.2969 83.4909 29.0436 77.9864 28.6113C77.049 28.5345 76.2402 29.2232 76.1656 30.1408C76.0914 31.0586 76.7864 31.862 77.7176 31.9351C80.9391 32.1882 83.1914 33.1796 84.7664 34.4143C82.8641 35.0682 81.1031 36.0197 79.5407 37.2119C78.7388 37.8237 78.6759 38.9971 79.3931 39.7037C79.9916 40.2936 80.9449 40.3638 81.6142 39.8528C84.1712 37.8999 87.3789 36.7352 90.8581 36.7352C93.46 36.7352 95.9106 37.3857 98.0515 38.5299C98.4566 37.4765 98.7635 36.3766 98.966 35.2407C96.5168 34.064 93.7663 33.4021 90.8583 33.4021V33.4021Z" fill="#4F93E2"/>
<path d="M21.8326 52.4499C23.335 57.1319 26.2645 59.1049 28.552 59.9364C29.8663 58.0024 30.7376 55.7524 31.0135 53.3259C31.1178 52.4084 31.9414 51.7399 32.8729 51.8367C33.8076 51.9339 34.4814 52.7636 34.3776 53.6844C33.777 59.0033 30.8464 63.637 26.6202 66.5764H15.9688C19.9365 66.5764 23.5505 65.0618 26.2529 62.5914C23.6745 61.3906 20.3344 58.8392 18.6067 53.4556C18.3252 52.5776 18.8188 51.6407 19.7096 51.363C20.6005 51.0858 21.5506 51.5721 21.8326 52.4499Z" fill="#81C9FD"/>
</g>
<path d="M33.6974 43.2168C35.4508 43.2168 36.8723 42.0909 36.8723 40.7021C36.8723 39.3133 35.4508 38.1875 33.6974 38.1875C31.9439 38.1875 30.5225 39.3133 30.5225 40.7021C30.5225 42.0909 31.9439 43.2168 33.6974 43.2168Z" fill="#FDC6E3"/>
<path d="M71.0597 43.2168C72.8131 43.2168 74.2346 42.0909 74.2346 40.7021C74.2346 39.3133 72.8131 38.1875 71.0597 38.1875C69.3062 38.1875 67.8848 39.3133 67.8848 40.7021C67.8848 42.0909 69.3062 43.2168 71.0597 43.2168Z" fill="#FDC6E3"/>
<path d="M39.1404 40.7066C42.6174 40.7066 45.436 37.9286 45.436 34.5017C45.436 31.0749 42.6174 28.2969 39.1404 28.2969C35.6634 28.2969 32.8447 31.0749 32.8447 34.5017C32.8447 37.9286 35.6634 40.7066 39.1404 40.7066Z" fill="white"/>
<path d="M45.3286 34.5017C45.3286 37.8678 42.5595 40.5992 39.1404 40.5992C35.7212 40.5992 32.9521 37.8678 32.9521 34.5017C32.9521 31.1357 35.7212 28.4043 39.1404 28.4043C42.5595 28.4043 45.3286 31.1357 45.3286 34.5017Z" stroke="#C2C2C2" stroke-opacity="0.5" stroke-width="0.214825"/>
<path d="M65.6169 40.7066C69.0939 40.7066 71.9126 37.9286 71.9126 34.5017C71.9126 31.0749 69.0939 28.2969 65.6169 28.2969C62.1399 28.2969 59.3213 31.0749 59.3213 34.5017C59.3213 37.9286 62.1399 40.7066 65.6169 40.7066Z" fill="white"/>
<path d="M71.8052 34.5017C71.8052 37.8678 69.0361 40.5992 65.6169 40.5992C62.1978 40.5992 59.4287 37.8678 59.4287 34.5017C59.4287 31.1357 62.1978 28.4043 65.6169 28.4043C69.0361 28.4043 71.8052 31.1357 71.8052 34.5017Z" stroke="#C2C2C2" stroke-opacity="0.5" stroke-width="0.214825"/>
<path d="M39.141 38.1972C41.2133 38.1972 42.8933 36.5414 42.8933 34.499C42.8933 32.4565 41.2133 30.8008 39.141 30.8008C37.0686 30.8008 35.3887 32.4565 35.3887 34.499C35.3887 36.5414 37.0686 38.1972 39.141 38.1972Z" fill="#383842"/>
<path d="M65.6166 38.1972C67.6889 38.1972 69.3689 36.5414 69.3689 34.499C69.3689 32.4565 67.6889 30.8008 65.6166 30.8008C63.5442 30.8008 61.8643 32.4565 61.8643 34.499C61.8643 36.5414 63.5442 38.1972 65.6166 38.1972Z" fill="#383842"/>
<path d="M67.3074 18.4502C66.1772 18.4502 65.0473 18.8714 64.1253 19.7137C63.6703 20.1296 63.6433 20.83 64.0653 21.2784C64.4872 21.7268 65.1981 21.753 65.6528 21.3378C66.6423 20.4334 67.9722 20.4334 68.9617 21.3378C69.4166 21.753 70.1273 21.727 70.5492 21.2784C70.9709 20.8302 70.9442 20.1296 70.4892 19.7137C69.5674 18.8714 68.4375 18.4502 67.3074 18.4502Z" fill="#383842"/>
<path d="M36.6667 20.0948C35.5366 20.0948 34.4067 20.5159 33.4846 21.3583C33.0297 21.7741 33.0027 22.4745 33.4247 22.923C33.8466 23.3714 34.5575 23.3975 35.0122 22.9823C36.0017 22.0779 37.3316 22.0779 38.321 22.9823C38.776 23.3975 39.4867 23.3716 39.9086 22.923C40.3303 22.4748 40.3036 21.7741 39.8486 21.3583C38.9268 20.5159 37.7969 20.0948 36.6667 20.0948Z" fill="#383842"/>
<path d="M39.4372 28.3242C36.6578 28.3242 34.1655 30.073 33.2395 32.6751C32.9361 33.5243 33.3839 34.4572 34.2409 34.7577C34.8023 34.958 35.3899 34.8068 35.8215 34.4515L42.7238 42.6814V44.6409C42.7238 45.542 43.4588 46.2725 44.3671 46.2725C45.2755 46.2725 46.0104 45.542 46.0104 44.6409V34.8509C46.0104 31.252 43.0624 28.3242 39.4372 28.3242Z" fill="#B9BBC1"/>
<path d="M34.5111 31.5859C31.4989 31.5859 28.6521 32.734 26.4326 34.8852L5.36328 57.7236L7.78655 59.9273L8.35575 59.31L42.7276 68.6667V69.1142C42.7276 70.0153 43.4626 70.7459 44.371 70.7459C45.2793 70.7459 46.0143 70.0153 46.0143 69.1142V43.0076C46.0143 36.7096 40.8532 31.5859 34.5111 31.5859Z" fill="#8B8996"/>
<path d="M65.7314 28.3242C68.5109 28.3242 71.0032 30.073 71.9292 32.6751C72.2326 33.5243 71.7848 34.4572 70.9278 34.7577C70.3664 34.958 69.7787 34.8068 69.3471 34.4515L62.4448 42.6814V44.6409C62.4448 45.542 61.7099 46.2725 60.8015 46.2725C59.8932 46.2725 59.1582 45.542 59.1582 44.6409V34.8509C59.1582 31.252 62.1061 28.3242 65.7314 28.3242Z" fill="#B9BBC1"/>
<path d="M70.6614 31.5859C73.6736 31.5859 76.5204 32.734 78.7399 34.8852L99.8092 57.7238L97.3859 59.9275L96.8167 59.3102L62.4448 68.6667V69.1142C62.4448 70.0153 61.7099 70.7459 60.8015 70.7459C59.8932 70.7459 59.1582 70.0153 59.1582 69.1142V43.0076C59.1582 36.7096 64.3192 31.5859 70.6614 31.5859Z" fill="#8B8996"/>
<path opacity="0.9" d="M23.0061 90.3302C32.9894 90.3302 41.0825 82.2945 41.0825 72.3819C41.0825 62.4693 32.9894 54.4336 23.0061 54.4336C13.0228 54.4336 4.92969 62.4693 4.92969 72.3819C4.92969 82.2945 13.0228 90.3302 23.0061 90.3302Z" fill="url(#paint1_linear_3670_18589)"/>
<path d="M22.7725 81.7713C28.0321 81.7713 32.2959 77.5377 32.2959 72.3153C32.2959 67.0929 28.0321 62.8594 22.7725 62.8594C17.5128 62.8594 13.249 67.0929 13.249 72.3153C13.249 77.5377 17.5128 81.7713 22.7725 81.7713Z" fill="#383842"/>
<path opacity="0.54" d="M40.6761 72.3819C40.6761 62.4693 32.583 54.4336 22.5997 54.4336C17.6687 54.4336 13.1988 56.394 9.9375 59.5727C14.5119 58.8875 24.9029 59.1616 29.8716 65.7396C34.8404 72.3177 34.4263 82.4052 33.5982 86.6267C37.9018 83.3459 40.6761 78.1856 40.6761 72.3819Z" fill="white"/>
<path d="M23.0063 49.5352C10.3204 49.5352 0 59.7824 0 72.3785C0 84.9745 10.3204 95.2218 23.0063 95.2218C35.6923 95.2218 46.0127 84.9745 46.0127 72.3785C46.0127 59.7824 35.6923 49.5352 23.0063 49.5352ZM23.0063 88.6951C13.9453 88.6951 6.57324 81.3753 6.57324 72.3785C6.57324 63.3817 13.9453 56.0618 23.0063 56.0618C32.0674 56.0618 39.4395 63.3817 39.4395 72.3785C39.4395 81.3753 32.0674 88.6951 23.0063 88.6951Z" fill="#5C546A"/>
<path d="M39.4392 51.1753H65.7321L65.9848 51.1719C62.7867 54.2816 60.8022 58.6172 60.8022 63.4128V69.1237H44.3691V63.4128C44.3691 58.6172 42.3846 54.2816 39.1865 51.1719" fill="#5C546A"/>
<path d="M26.2939 75.6432C29.9242 75.6432 32.8672 72.7211 32.8672 69.1165C32.8672 65.5119 29.9242 62.5898 26.2939 62.5898C22.6636 62.5898 19.7207 65.5119 19.7207 69.1165C19.7207 72.7211 22.6636 75.6432 26.2939 75.6432Z" fill="white"/>
<path d="M32.5536 69.1165C32.5536 72.5458 29.7532 75.3296 26.2939 75.3296C22.8347 75.3296 20.0343 72.5458 20.0343 69.1165C20.0343 65.6872 22.8347 62.9035 26.2939 62.9035C29.7532 62.9035 32.5536 65.6872 32.5536 69.1165Z" stroke="#C2C2C2" stroke-opacity="0.5" stroke-width="0.627219"/>
<path opacity="0.9" d="M82.1653 90.3302C92.1486 90.3302 100.242 82.2945 100.242 72.3819C100.242 62.4693 92.1486 54.4336 82.1653 54.4336C72.182 54.4336 64.0889 62.4693 64.0889 72.3819C64.0889 82.2945 72.182 90.3302 82.1653 90.3302Z" fill="url(#paint2_linear_3670_18589)"/>
<path opacity="0.54" d="M100.242 72.3819C100.242 62.4693 92.1484 54.4336 82.1651 54.4336C77.2341 54.4336 72.7642 56.394 69.5029 59.5727C74.0773 58.8875 84.4683 59.1616 89.4371 65.7396C94.4058 72.3177 93.9918 82.4052 93.1636 86.6267C97.4673 83.3459 100.242 78.1856 100.242 72.3819Z" fill="white"/>
<path d="M82.3984 81.7713C87.6581 81.7713 91.9219 77.5377 91.9219 72.3153C91.9219 67.0929 87.6581 62.8594 82.3984 62.8594C77.1388 62.8594 72.875 67.0929 72.875 72.3153C72.875 77.5377 77.1388 81.7713 82.3984 81.7713Z" fill="#383842"/>
<path d="M82.1646 49.5352C69.4786 49.5352 59.1582 59.7824 59.1582 72.3785C59.1582 84.9745 69.4786 95.2218 82.1646 95.2218C94.8505 95.2218 105.171 84.9745 105.171 72.3785C105.171 59.7824 94.8505 49.5352 82.1646 49.5352ZM82.1646 88.6951C73.1035 88.6951 65.7314 81.3753 65.7314 72.3785C65.7314 63.3817 73.1035 56.0618 82.1646 56.0618C91.2256 56.0618 98.5977 63.3817 98.5977 72.3785C98.5977 81.3753 91.2256 88.6951 82.1646 88.6951Z" fill="#5C546A"/>
<path d="M85.4521 75.6432C89.0824 75.6432 92.0254 72.7211 92.0254 69.1165C92.0254 65.5119 89.0824 62.5898 85.4521 62.5898C81.8218 62.5898 78.8789 65.5119 78.8789 69.1165C78.8789 72.7211 81.8218 75.6432 85.4521 75.6432Z" fill="white"/>
<path d="M91.7118 69.1165C91.7118 72.5458 88.9114 75.3296 85.4521 75.3296C81.9929 75.3296 79.1925 72.5458 79.1925 69.1165C79.1925 65.6872 81.9929 62.9035 85.4521 62.9035C88.9114 62.9035 91.7118 65.6872 91.7118 69.1165Z" stroke="#C2C2C2" stroke-opacity="0.5" stroke-width="0.627219"/>
<path d="M65.7324 47.9023H39.4395V51.1657H65.7324V47.9023Z" fill="#8B8996"/>
<path d="M56.8466 37.5211C58.898 40.071 58.5028 43.6485 56.8466 44.9621C55.1905 46.2757 51.4677 46.8558 49.4163 44.3058C47.3649 41.7559 47.039 38.3126 49.4169 36.4267C50.8421 35.2963 54.7952 34.9712 56.8466 37.5211Z" fill="#383842"/>
<defs>
<linearGradient id="paint0_linear_3670_18589" x1="23.1145" y1="6.56979" x2="91.3493" y2="67.5248" gradientUnits="userSpaceOnUse">
<stop stop-color="#CBF2FF"/>
<stop offset="1" stop-color="#98C4FF"/>
</linearGradient>
<linearGradient id="paint1_linear_3670_18589" x1="4.92998" y1="72.3819" x2="41.0825" y2="72.3819" gradientUnits="userSpaceOnUse">
<stop stop-color="#78C5E6"/>
<stop offset="0.9788" stop-color="#BBE3F4"/>
</linearGradient>
<linearGradient id="paint2_linear_3670_18589" x1="64.0892" y1="72.3819" x2="100.242" y2="72.3819" gradientUnits="userSpaceOnUse">
<stop stop-color="#78C5E6"/>
<stop offset="0.9788" stop-color="#BBE3F4"/>
</linearGradient>
</defs>
</svg>
