<svg width="24" height="24" viewBox="0 0 24 24" fill="none" xmlns="http://www.w3.org/2000/svg">
<g clip-path="url(#clip0_3301_1895)">
<path d="M12 24C18.6274 24 24 18.6274 24 12C24 5.37258 18.6274 0 12 0C5.37258 0 0 5.37258 0 12C0 18.6274 5.37258 24 12 24Z" fill="url(#paint0_linear_3301_1895)"/>
<path d="M8.12305 12.8773L9.54675 16.8179C9.54675 16.8179 9.72475 17.1866 9.91535 17.1866C10.1059 17.1866 12.9408 14.2374 12.9408 14.2374L16.0933 8.14844L8.17385 11.8601L8.12305 12.8773Z" fill="#C8DAEA"/>
<path d="M10.0105 13.8877L9.73721 16.7923C9.73721 16.7923 9.62281 17.6823 10.5126 16.7923C11.4024 15.9023 12.2541 15.216 12.2541 15.216" fill="#A9C6D8"/>
<path d="M8.14822 13.0178L5.21962 12.0636C5.21962 12.0636 4.86962 11.9216 4.98232 11.5996C5.00552 11.5332 5.05232 11.4767 5.19232 11.3796C5.84122 10.9273 17.2029 6.84359 17.2029 6.84359C17.2029 6.84359 17.5237 6.73549 17.7129 6.80739C17.7597 6.82188 17.8018 6.84854 17.835 6.88465C17.8681 6.92076 17.891 6.96501 17.9014 7.01289C17.9219 7.09746 17.9304 7.18446 17.9268 7.27139C17.9259 7.34659 17.9168 7.41629 17.9099 7.52559C17.8407 8.64209 15.7699 16.9749 15.7699 16.9749C15.7699 16.9749 15.646 17.4625 15.2021 17.4792C15.093 17.4827 14.9844 17.4642 14.8826 17.4249C14.7808 17.3855 14.6879 17.326 14.6096 17.25C13.7385 16.5007 10.7277 14.4773 10.0624 14.0323C10.0474 14.0221 10.0348 14.0087 10.0254 13.9932C10.0159 13.9777 10.01 13.9603 10.0078 13.9423C9.99852 13.8954 10.0495 13.8373 10.0495 13.8373C10.0495 13.8373 15.2921 9.17729 15.4316 8.68809C15.4424 8.65019 15.4016 8.63149 15.3468 8.64809C14.9986 8.77619 8.96242 12.5881 8.29622 13.0088C8.24827 13.0233 8.19758 13.0264 8.14822 13.0178Z" fill="white"/>
</g>
<defs>
<linearGradient id="paint0_linear_3301_1895" x1="12" y1="24" x2="12" y2="0" gradientUnits="userSpaceOnUse">
<stop stop-color="#1D93D2"/>
<stop offset="1" stop-color="#38B0E3"/>
</linearGradient>
<clipPath id="clip0_3301_1895">
<rect width="24" height="24" fill="white"/>
</clipPath>
</defs>
</svg>
