<svg width="24" height="24" viewBox="0 0 24 24" fill="none" xmlns="http://www.w3.org/2000/svg">
<g clip-path="url(#clip0_3301_1902)">
<path d="M0 11.52C0 6.0894 0 3.37413 1.68707 1.68707C3.37413 0 6.0894 0 11.52 0H12.48C17.9106 0 20.6259 0 22.313 1.68707C24 3.37413 24 6.0894 24 11.52V12.48C24 17.9106 24 20.6259 22.313 22.313C20.6259 24 17.9106 24 12.48 24H11.52C6.0894 24 3.37413 24 1.68707 22.313C0 20.6259 0 17.9106 0 12.48V11.52Z" fill="#0077FF"/>
<path d="M12.7698 17.2903C7.29976 17.2903 4.1798 13.5403 4.0498 7.30029H6.7898C6.8798 11.8803 8.89976 13.8203 10.4998 14.2203V7.30029H13.0799V11.2503C14.6599 11.0803 16.3197 9.28029 16.8797 7.30029H19.4597C19.0297 9.74029 17.2297 11.5403 15.9497 12.2803C17.2297 12.8803 19.2798 14.4503 20.0598 17.2903H17.2197C16.6097 15.3903 15.0899 13.9203 13.0799 13.7203V17.2903H12.7698Z" fill="white"/>
</g>
<defs>
<clipPath id="clip0_3301_1902">
<rect width="24" height="24" fill="white"/>
</clipPath>
</defs>
</svg>
