<svg width="16" height="16" viewBox="0 0 16 16" fill="none" xmlns="http://www.w3.org/2000/svg">
<path d="M5.52736 6.04291C4.4921 5.69149 3.32217 5.40503 2.41728 6.01856C1.71494 6.49475 1.13354 7.30531 1.02661 8.44387C1.02661 8.796 1.09152 9.13283 1.20917 9.44368C0.489635 9.83443 0 10.8173 0 11.6929C0 12.9652 1.03321 14 2.30352 14H13.6965C14.9668 14 16 12.9652 16 11.6929C16 10.8173 15.5103 9.83443 14.7908 9.44368C14.9084 9.13283 14.9734 8.796 14.9734 8.44387C14.9734 7.68552 14.7483 7.09567 14.4001 6.64871C13.4212 5.39228 11.5375 5.77939 10.0294 6.29152L8.4188 6.83843C8.23638 6.89626 8.04067 6.89484 7.85913 6.83444L5.52736 6.04291Z" fill="#8ABDFF"/>
<path d="M10.0772 12.3902C9.66469 12.3902 9.40718 12.2101 9.22455 12.0454C9.13444 11.9641 9.1291 11.8271 9.21267 11.7394C9.29624 11.6517 9.43704 11.6466 9.52711 11.7278C9.8022 11.9758 10.3523 11.9857 10.5813 11.7162C10.6715 11.6349 10.8122 11.64 10.8958 11.7278C10.9793 11.8154 10.974 11.9524 10.8839 12.0338C10.7013 12.1985 10.4439 12.3902 10.0772 12.3902Z" fill="#383842"/>
<path d="M12.5757 11.2927C13.2723 11.2927 13.837 10.7194 13.837 10.0122C13.837 9.30498 13.2723 8.73169 12.5757 8.73169C11.8791 8.73169 11.3145 9.30498 11.3145 10.0122C11.3145 10.7194 11.8791 11.2927 12.5757 11.2927Z" fill="white"/>
<path d="M12.5761 10.7802C12.994 10.7802 13.3328 10.4363 13.3328 10.0119C13.3328 9.58763 12.994 9.24365 12.5761 9.24365C12.1581 9.24365 11.8193 9.58763 11.8193 10.0119C11.8193 10.4363 12.1581 10.7802 12.5761 10.7802Z" fill="#383842"/>
<path d="M12.3953 10.0487C12.6341 10.0487 12.8278 9.85215 12.8278 9.60968C12.8278 9.36721 12.6341 9.17066 12.3953 9.17066C12.1565 9.17066 11.9629 9.36721 11.9629 9.60968C11.9629 9.85215 12.1565 10.0487 12.3953 10.0487Z" fill="white"/>
<path d="M7.38724 11.2927C8.08381 11.2927 8.6485 10.7194 8.6485 10.0122C8.6485 9.30498 8.08381 8.73169 7.38724 8.73169C6.69066 8.73169 6.12598 9.30498 6.12598 10.0122C6.12598 10.7194 6.69066 11.2927 7.38724 11.2927Z" fill="white"/>
<path d="M7.38762 10.7802C7.80556 10.7802 8.14437 10.4363 8.14437 10.0119C8.14437 9.58763 7.80556 9.24365 7.38762 9.24365C6.96967 9.24365 6.63086 9.58763 6.63086 10.0119C6.63086 10.4363 6.96967 10.7802 7.38762 10.7802Z" fill="#383842"/>
<path d="M7.20685 10.0487C7.44567 10.0487 7.63928 9.85215 7.63928 9.60968C7.63928 9.36721 7.44567 9.17066 7.20685 9.17066C6.96802 9.17066 6.77441 9.36721 6.77441 9.60968C6.77441 9.85215 6.96802 10.0487 7.20685 10.0487Z" fill="white"/>
<path d="M8.03027 2.00848C8.06556 1.99726 8.10328 1.99717 8.13862 2.00823L13.7786 3.77341C13.9541 3.82832 13.9548 4.08509 13.7797 4.14113L8.15142 5.94264C8.11482 5.95435 8.07561 5.95407 8.03917 5.94183L2.57959 4.10764C2.40694 4.04964 2.40887 3.79616 2.58238 3.74098L8.03027 2.00848Z" fill="#8ABDFF"/>
</svg>
